<mxfile host="app.diagrams.net" modified="2024-04-10T04:56:15.469Z" agent="Mozilla/5.0 (Windows NT 10.0; Win64; x64) AppleWebKit/537.36 (KHTML, like Gecko) Chrome/121.0.0.0 Safari/537.36" version="24.2.3" etag="mx2N7DCENj3TqZaTnm3H" type="github">
  <diagram name="Trang-1" id="Zca9CWqhPwOf1l2rHNaI">
    <mxGraphModel>
      <root>
        <mxCell id="0" />
        <mxCell id="1" parent="0" />
      </root>
    </mxGraphModel>
  </diagram>
</mxfile>
